<mxfile host="65bd71144e">
    <diagram id="_mdpzU0EwK1IBYebdgPh" name="Page-1">
        <mxGraphModel dx="1160" dy="1916" grid="1" gridSize="10" guides="1" tooltips="1" connect="1" arrows="1" fold="1" page="1" pageScale="1" pageWidth="850" pageHeight="1100" math="0" shadow="0">
            <root>
                <mxCell id="0"/>
                <mxCell id="1" parent="0"/>
                <mxCell id="5" value="" style="shape=image;verticalLabelPosition=bottom;labelBackgroundColor=default;verticalAlign=top;aspect=fixed;imageAspect=0;image=data:image/png,iVBORw0KGgoAAAANSUhEUgAAAJEAAAHPCAIAAADcSa9HAAAgAElEQVR4Ae19D1xUVdr/mCKSOCZpqWQK7JuNaW9srFQ/14V2bwbJBqZGjsWNDBLdFlpRrJFmZCuSLCzHd4QtyCaUBbYWiCaiifvusjuVu20un+ptKf1s9O7WgoIYiiT3R+/T59njuXeGe+/84c54+cyHz7nnPuc8z32+95x77jnnPl8d/39/b/xjeN/fhiDtk/9nzpz57W9/u3FjztatBVu3Fqz+zV/LKyq3b99SXLz9yRdrV77yMeT74/9tr3z85Iu1xcXbt2/fUl5Rufo3fxXVkpT0ozvuSBc9JT3zHnt70UHHY49Ztm4tKN/z9H11ro1P7a+urvaJD4WVPPfJmW9GeJ3whE9yvv766+eeezY//74337Sr87dwYeyqVbf63LbHHiv8+c9/5hMfuqvEj5jZbPtstid4/pg6fz/4wbU//3m2z21ranpew8xfkGuY0e3466+/1toZ7RQfHWt9o4/bsV/7xnPnzp05cyZwmB0//oHEh8fIyNH+/k5KWHpxqqC7wyDtG8+dOxc4zBhmmTv3Ufm9vX9JTLyOyoyKuoTK8fIwSDHjeX+O9annWV3dvp6e9+32cvj19LxfV7cP0h0dDUeOOI4e/T3AsH//43Fx8zs6GkhUIiMvdjhe5PljR4447Pbynp73ef4Y1nbkiKOjowEOodTRo78nFQ0NfQLFsU4NM/rxKhyDREVd4nK9umTJ1WZzPvwiIqZgOinpBru9HByq0+mio2c3NNjefvsQCAwOfhwRMaWysvTIEQcWgUw8XLLk6g0bMs3mfJ4/1t3twnyzOR8UVVaWImA8f0zDTCpmRmM6OC4x8TqdTgdpu71cp9ORmEHfCE3Kbi8fGvoE+ka7vXzJkquNxvRLL53R2/sX7DDN5vy8vLvz8u4ZGPiQ54+5XK9Siurq9pGAaZjRgPE8766dUa70jBnpZcRsw4ZMl+tVl+vV4eFPSczs9vLOztbk5BtFMSOrgrSwnWVnrxWOfYQFMUf0Ce3XcSM4OnBjEOgbKcyioi6JirqEZVf39v6FZVfD4YwZ053Ogzk569A7PH/ss89+xzDLhoY+MZvzQez48Q9IzCIjL46KumTChAk8f2x4+NOqqqdAzOk8OGPGdLIqSFOY5eSsczoPjowc5fljhw83UdqxeGlpUVTUJYcPN6FJeAoSIYUZdW08fww9LjwVgBwSM7M5H3vm48c/0Osj8d4iLRntw+F5mZh4XW/vX6gGDZL+xiygY33y4iEt2rcIxfyU4w4zUSTABofjRbM53+V69ZprrhoXzAL9Tu0n1yuuVgFmPH+socGGIyBRdP3dzgL6fqbYuX4qKBGzysrSwcGPKRvGsW9UF2ZWa0lXF0d5Bw9hUNDR0dDQYMNMMmG1lhiN6TDWJ/Pdpd1hNjDw4YoVP1qw4ApQhPBAPdDOrNadQ0OfaO3smNGY7nK96s7FONaHUQAlVllZarXudLlehbE+dVb0kMSsu9uVl3dPZ2crjDnhXaK721Vc/PPa2r3Dw59iDd3dLpfrVbgz+vs7165dSd1nF0TfePhwEwzKJ0+e7HK9Ghd3ZVzclTx/rK5uH+RHRV1y/PgHEyZMYJhldnt5RMQUHOvjuBwHftLHoiRmPH9sYODD5OQbqZnogYEPScAQOUjExMwTvs+FPmbkdLDRmK7T6bq6/rur678TE6/DgTW8FQjbGeTAu5T3mFF4KD68EDG7/voliYnXZWevlYjZwMCHXV2chpnIXJTcLOHcleidOzDwYV7ePTABf9NN169Y8aOqqqfs9nKH40W7vXzVqlvhFMuuZtnVkInPM2hnMLXY0GDbtWu73V7OsqtFFQkzqb5RKKAsJ/TbGTUH393tKi0tMpvzKytL7fbypKQbcF5/cPBjmNd/++1D4M3S0iIoDgO8hgab2ZwvHJe7c30wYnb69OnPP/88cPON7nznLp/sG93JeJMfjJgFeo5Yrn97et7v7nbJLSVdXsOMft5JfJ5Jd7HPJTXMNMy+2791QYxBfN6AJFaotTOtnYVEO9uzpzwra3VV1VOB/1VUlNpsj3vWGxMzj2F+6FlGwdmCgvuDdb/+2bNnf/e735WV7dq799kA/559tjwnZ8OqVeme9RYUFOzYscOzjIKzzzzzdEtLC93t+Oh4ZGTk7Nmz/no/GxkZGRoaOjkef8ePH6+urn7kkUc8K+/t7T1x4oRnGWVnz5w54yOM6GpGRkaGh4f9hRmtLYDHw8PDtbW1O3fuDKDOgKrSMAuou32iTMPMJ24MaCUaZgF1t0+UaZj5xI0BrUTDLKDu9okyDTOfuDGglWiYBdTdXirz7z5iL43zpnhov5/5cb++N073smxoY+bHfcRe+t2b4hpm3nhvfMpqmI2P373RqmHmjffGp6yG2fj43RutGmbeeG98yoY2ZtpYf3zuKsVatXdqxa4b54IhNXf10UcfORyO5ubm7du333333a+//rrD4Th27NjIyMg4u9mn6kMKs5deeik+Pn7hwoVz586dOXPmwoULFy1a1N7efu7cOZ86bZwrCynMPvroo8suu0xH/F111VV//etfx9nHvlYfUpidO3du6dKlCFl4eHhBQUFPT4+vnTbO9YUUZjzPv/DCCxdffDHANmXKlJdffjnEOsYQnCM+ceLEjBkzdDrdhAkTbrzxxvfee2+cG4Uf1IdaO+N5fs2aNZMmTQoLCysoKDhx4oQfnDbOVYYgZq2trREREZdddtmvfvWrEBvl+/fb3HG8FXt6eq666qply5YdOXJkHM3wn+oQbGdnzpx5+OGH77///qEhXzLg+A8DuTVLxWxoaOi/Avj31FNP/eIXv9i7d68Cnfv27Xv00UdzcnJklX3ooYfKyspkFfGVcH19/ZdffikdOamY9fX1TY+anrUjKzC/27Jvu+I/rriz4E6F6kxZWSZ5psYujk29N1WhOi/ccsfmO9LvSne94/ILZld87wqO5wLzs71ju3Hlja/845XAqON4jjEyezv2BkwdKqrpqtls2axhpuTG0jBT4jW89Tie09qZh65SxvNM6xvJu8pXaVl9o7xvc/v6+i5kzFr6W1KzU6XjVOYoK6wslCIvFzMZ3+aqB7Pc0lxLnUWKOzieS8tJqzhcIUXY8/NsTsyclv4WqMdDnXPj5s6Nm8vxXNtQG2tmpdgpCzPoMIOvb2wdbG0bamvpb2nqbWrqbWrpb2kbaoN0U29T+0h78/FmcG7rYGvS6qTdrbvbR9rbR9rR6aIQesBMH6XHIrmluWGTw2wuG+ZgwpBoADMMiQbIZIyMqCQW4XjugsCMNbMmu8mQaFh4/cJR7ySvTc62ZM+KnmVINBgSDeXOcnQxa2Z1Ol3MNTEAMLqSdBmmJWIGbwWiSKRmp5Y7y3e37kZFGmbfjUURs6bepm9HmC6bTqdjzSx4Xx+lpzAD/zoGHFnFWYiQMOE9ZtAVJ61OUjtmuaW5eP0lDSX13fV46E3Cw1hfGWatg62eBwUKMBOts6m3Se2Y4U3N8Zy1w9rY0+gNVFhWLmaxS2IZI8MYmaKqoqKqIkjHLolNz0vPyMtwDDhIV6IWMiERs5KGktkLZi9dsVS0zrSctBQ2pcxRBjWrtG8kMcsqzqrurE5gEuDRAn1RVnGWIdGAz/8yR5kh0QBXlcAkuBtDe8Csvru+saexurPaOezkeM4x4Mi2ZK/csNLmstlcNuew0znshLTNZUNJ57CzurOaBIlKe8Cs4nBFApMA8vXd9agoPjmeqrPicAUOUwsrC/Ot+Y4BB6WIOhyHMQiJGdxW+ig9DJ+Kqor0UfqiqqKm3qY5MXPAVhjjpbApFYcr9FF6cgxNXowHzEgxSJvsJnyeCc9KzPGAGcdzhz47hLBhhThAxRxMWOosrJltG2rDHHcJWZjJ20fs7v1MFDOwz2Q36XS6iMgIHBc4h50AJAyXybLUJcnCjCqr7NAzZsrqlFJKFmY8z8vYr+8Os6n6qdBX1HfXYzsDW01206zoWfnWfBDgeK66szojL8Pmsi1dsdTmsmmYjc/7GTztGSNT0lBSYC2o6apJy0kDzKwdVsgEGcyEQ1JSeD9q7UybIx57nSFY+kYZ+xvd9Y3CJuKTHNs7tvjkeOvvrfaP7YH53ZR2U/HB4sDoIrXsfnN39i+y//DHP3hoWNQp9c43TtVPXbBoQdy1cYH5RV4SGR0XHRhdpJYrr75y4eKFb7zxBgWMh0P1YvaDW37w0kcvNfc2B+aXtDpp1+u7mnqbAqMOtVT+qTL34dyAtjPP8wswz8TxnLshIrwGpLAprYOtZKeqjUHctTOvxvrVndU2lw2msRt7GmHSgeO5isMVMLiv6aphzWy2Jdsx4NBH6TETBrjkBIHwpVjDTBQzr96prR3WjLwMxsgkrU6KjoveuGsjY2Q27trY2NOoj9LDaD6zMHP5quWLb1pc01VDZlYdqSIn4hp7Gjfu2ljSUKK1M1GchJkKn2fo9KbeJp1OF7skljWzsUtiyTdlmAcx2U1k3whNClcAWgdbWTNLAabt4RHiROb4BrPFNy022U0muwnaGbQYD5jB2zfHc+QsuKraGUwIoEk4UYA5MD0NPQrcc1nFWXAIk+MlDSWMkanpqgFJd6t3cueulL+fjZqSvDYZFotjronJt+bDXH51Z7U+Sg9pmKbKyMuATASSNbPYTCdOmgjC1OKWxOeZu2UB0rMczwmndykBak8qzLHhWmACkyA6hsIFBNbMwnrF7tbdNpeturO6zFHGmlmbywaPbeew01xrFoUtcJhxPCe6I8M57MR5fTDXMeBwDjtxCrxtqK11sBUyOZ7DfRxjjhthhJmWk0bu4Zk2Y9rESRMhEwTAuRWHK7BlJDAJEyZMgK01ljoLuUhLIkfOg9hcNsbI4Nnm482imKEAtQzL8ZzIqOr8OrFsQDFDrVQCvENlyj2k2hm6jOxvOZ7T6XSwKIwvFfDsJJ1uSDTodDowQBlm5POYuhBYqYD7AJojrC6Z7KbwiHB9lL7cWd4+0g57IMj7AOtRBWZojTcJP2HW2NOIPR5lnod2RmIGK65QVrTHgxdWbGewGetCxCwtJw3GOPhSAYdhk8My8jKsHVbWzKbnpUNmWk5aTVdNZmEmHEbHRSetToKthuhKCjDqeUY2U47nLHWWiMgIWFsnG3RTb1N0XDRoqT1aW+YoM9lNRVVFWcVZYJLJboKdDRciZhzPsWYW3wpKGkrgMLc0t767Hg6Xr1oOmYBH1ZEqOGTNbOtgK3RfVUeq9ry9RwgYhVl9dz1rZlEytzSXNbOFlYVQZ9WRKqgBXlRAS9WRqsLKQtbM4vNyz9t7WDMLzdrdK43c9bOBgYEjR44oHOuLXrYPM6m+ccyaydt/TGFRAbJv5Hiu9mgta2atHVZSuPZoLQJG5o+ZdvdKIxezM2fOfPHFFyGCGfmYGdODogIUZhzPeV8nKsKNPZiDiZAdg+AV+i8hxMx/usiaNczGXo8m/UWmNcyU+w78KPd5RnpfWVrDTMNMqgf82zfOmDVjy39tCcxv/bb1sUti857MU6buIetDBXsLZJU1LDWsK1wnq4hPhO8vuX/NvWv88g380NDQk7ue3GfbF5jf0+VPFz9a/Ny+5xSoe27fczkP5GTckSGrbPGjxU+XPy2riE+E9+7ba3/Z/sX/fkGutrhLj8jlzf06gH+nTp3q7+9XprC/v//AgQM7duyQVbyvr+/UqVOyivhK+PTp0xIDFmq8ue7uZrXnS32nVvt1EPaFdnx9GWuehE/UntQwUztCQvs0zIQ+UXuOhpnaERLap2Em9InaczTM1I6Q0L4QxkzePmKha1SbE8KYyfs2V7UICQ0Lbcy09zMh4kGQo82DBAFIlIkaZpRDguBQwywIQKJM1DCjHBIEhxpmQQASaaKMb3PJYipPh/BYX3unVvm959a8kOob33nnncrKyn379uXk5Nx+++02m62iouKjjz6SuHLv1kkqOxFSmB04cODKK6+MioqKjIy8+OKLo6KiLr/88rfeeivEWNBCCrNjx45dfvnlyMGq0+muu+66jz76SGXtxFtzQgqzkZERhmEQs/DwcJPJ1NfX562TVFY+pDDjeb6hoSEyMhJgmzp16q9//esQ6xhDcI54cHBw5syZOp3uoosuuvnmmz/44AOVNRIfmBNq7Yzn+ZycnEmTJk2ePLmoqGhgYMAHTlJZFSGIWUdHx9SpU6+44gq73a4yb3trTsjy5p44ceK66667+eabP/nkE2+dpMryIdjOhoaGdu3a9eCDDw4PD6vS594a9R1m//jHPw4cOFAaPH9bt27NyclxZ29RUdGGDRvcnVWQ//jjj2/evHnLli0KynpfpLy8fHBwEKH+DrN333t3Nbt63bZ1eU/lBcVv6a1Lo+ZEBczUDY9tmHfVvB/c8oOAaSQVzZs/76uvvhLB7EHLgy//z8vKPmwNfKn7Su6LWRwTML2vn3w94ScJ2ZbsgGkkFV29+GoNM6kfzqLjNMxkuwx9hwmtnfHvvveu1jfiDSFMqKSdnfdtroaZECcyRxQziRE/yXrcpYGGzN1ZfJ6d921uKGEmK4AkGZ3Tncs4nhPFDInAyDCgZCVpOWnISQXcYXAIoZQglCfEBnUMOOKT4zEyKVnJKJMXYgZDx3+P9UOmb2w+3uwcdmIEVojSCodk6FaO59pH2kdZdZNWJ0GU1pb+FoiPSblMFDMMA2qps4RHhEOobGFByIFQ9VTMTawBSwlz4FToYwYOmn7pdIh0bK41T9VPxRDJyPkFkXV1Ot30S6dDNGSMj4lOxISwnZH+9RzVDmgKkUEM6TOBhgyCTIMisk5U7a92pjhIHmmZ53TbUBvyZHI852HcSN3UZGxbiLmJEawh0Dze/lnFWSRTA2mPYszKHGUpbArE/IOo4MBCwPFc2OQwxshkFmZifEGvMMNolRh3Ei9ANGwlFX8U405yPIeh9LEGKQmIpElKUiQn/sCssLKQCmWNBkjHjLp2iPiJ9ZD01oAQ6TqvMIuIjICQrcK4k6QONIXKDJschnHJ8aZG4TETjgHH0hVL8fYHeS8xQ2qNqiNVQhIOCJCvrG+0dlhjl8QCXQcZuRjggQuBcLtUOwN+X5+1MwQce+oEJgGi1APjIxLfGhINqdmpkAnPjJb+lqn6qRhOHjGDs1nFWYWVhWWOstTsVMhJzU4lyXQ5nnMOO7c9vw0xA0lgfUe8PbSzisMVjgEHPidGo90jgSWZCfw11Z3VGFgauXhRCyaE7QzJdIErB0LpJzAJZHjNmq4a0AImQRqfZxCeH00CGnnUSCYkjUEmTJgAo1Ikf20+3gzcsSa7ad22dW1DbQlMwqHPDjX1NrX0t0AmjM3mxMzRR+kxiDlgNjduLpwtqioKjwiPiIwYpbmfNmNaU29TubM8hU1p6m0CMl2wFaM4p+WklTvLm3qbDnYdRK5uz88z8mohjbeg8JTEHCFmomS67gbrY2qBy3Q3akXMzttHTL2f4UVCO2vpb5kTM2fajGmGRAN2g2RPgpnQOWDx3NJciiKXDJAPYggPtkgySjZmSu8bx3SQAgFRzBTUo6wIYnbet7kUZtiZAKsGNFugzQJWjcaeRsgEqg13mOEjN4FJgJ4h35o/K3oWSfwjxAz6xqUrltZ312cVZ5lrzUjahdfsoW9EGR8m1IPZv/ddUZjB0xLYcOHK03LSGCOD7DUQEBszSUactJw05P3geA7pfKDOAmtBSUMJFodBcIG1gJR0DDhAWJQ7B+zRMNPmiMdYagiCdubDXsVPVbGPsnPj5u77477A/J5565mF1y+87b7bAqOO0hJ3Vdw///nPoF+nXv3z1VMip8Qujg3Mb8GiBVMunnLJrEsCo47ScunMSz/99NOgxyzbkj3fML/5eHNgfnV/r4tPijcWGQOjjtJy1aKrvvzyS59hRg3BqZ4QX8lx9E8JwFugkDeXEhMeXrBjkH9/m0uNG4U+Eub4lTdXqI7KuTAx8/ROTTlIeCicsvMtb65QI5VzYWLm1ZonOT3hD95cCiHhoYaZ7PczCjOf8+YKQaJy1IAZTh3gLAFlZIG1ACYHyPUzkkyXMTIwn8DxnIfVO3Luyu08CKVbeDg6G+1X3lyhRipHOmap2akt/S1UcfKwzFFGsfaSZyEtfKfGKfwyRxnOxlEFcV4fpu6WrlgKE3iwshqfHG9z2XBev7qzOj45nqoBDn2Dmb95c0VNJzOFmOGGmdGBMpIbp+WkTZw0cdqMabBhBoapljrL6NISzMFXHK6IiIwIjwgH8kh3+3+EmOFIuG2obd22dcG9H8TdZZMe9z5NYYYvFSSZLsxQ63Q6WAbCpRzG+O031029TbCAoNPpWDMLJrkz3gNmwFvpDjNYEuF4DvddFVUVOYedozShsOBFvufgfUD5x2ftjKo3wId+woxcsSSvSDpmZA3wBKF6ZhwKAELUkgipFNOhiVlJQ8nGXRthPwRjZDLyMiC9+KbFS1csLaoqIjluMwszGSNTVFVkspuyLdmzF8xmzWzt0VpqZwC6zPNeudqjtctXLU/PS4cFaLKtMEYm25JtspssdZbGnkYwKbMwE55hKWyKyW7auGsjLF940B6amMFmIeTNBeJbOKzvrs8tzW3qbZoVPQs5bjmeAzZc4OLd8/Ye2PxE7sDxjFluaS4II0EvKCJroPh9Se0cz1FkukC7SyrFNGJ2+vTpzz//PAT3pOKlkgnPc2ykpGha2DdyPAdU1KQ8DGTIHInpAmtBvjW/bahNVB4x8+qdWrTqQGZSz7MxVTuHndWd1WOKuRMQxczLOkldNV017rZW+mtPKqk+MGm5mHlplShmXtYpvfgF2s6kO0hUUsNsjIV8Ua9RmVo7kz3fSHkw8IcaZvx77723ll17z8P3PPjMg0HxuyH1hkvnXOrO1M27N296apO7swryHyh9YN5V82649QYFZb0vcuX8K0W+gf/yyy/rG+orKisqn68Mit+eZ/fs2rVL1NT9lfsfyHtg1R2rRM8qy6z4VcVTu5/a8+weZcW9LFVRUQHxQUZI3lw4GAqev9OnTw8ODora+/XXX49Gunr00UdFzyrOHBwcPH36tOLiXhaEiIbnfZuL+0NCIBHCcb/Pe6cOAajwEjTM0BVBk9AwCxqo0FANM3RF0CQ0zIIGKjRUwwxdETQJDbOggQoNDWHMzttHjBccAokQxuy8b3NDACq8hNDG7N97UvGCQyChYRZ8IGqYaZipzgPf7btSnV1eGKS1My+cN05FNczGyfFeqA1tzP79ba4XLlJd0RDGTHunVt3dJtGgkBqDdHR0PPfcc08//TTLsrfddlt5efmzzz7b2dmp8eZKvBvGQezAgQNz586NjIycMmVKeHh4ZGRkVFSUxps7DkhIV/n555/Pnj0bOVgnTJhw/fXXf/zxx9JrCArJkOobR0ZGUlNTEbPw8PBHH320v78/KJCQbmRIYcbzfGNj47Rp0wC2adOmNTQ0SPdFsEiGGmZnzpy57LLLgDf3lltu6ezsDBYkpNsZapjxPL9p06awsLDw8PCHH3741KlT0n0RLJIhiJnL5YqMjJw3b15NTU2wwCDRzvO+zZVYJijE+vr6EhISfvzjH5MxD4PCcolGhmA7GxoaeuaZZwoKCkKcN3dMhE+fPl20vWjb9m2B+W1+cPOatWu2bN2iTN3GTRvvWneXrLJ3rLlj0882ySriK+Hn9j73+eefjwkBCkhtZ319fTMum1FYWRiY3/qH18ddG5f3VF5g1BVWFi5KXLSuaF1hRYAuEK/r/sfuX5O9xvWOCyEZMyEDsyu+d0XAvue0vWO7ceWNr/zjlYBpZIzM3o69AVOHimq6ajZbNmuYKfleW8NMidfw1vs2dJjWztx3kVrf+N3tFRTt7Lxvc92D+t2Zvr6+C+15BpxfZOtXnMZ4ksIaZD3P5H2bqx7M3JHUCt3B8VxaThoZnE9UBjKpdmapsyCP2Gj0RdG4jhjHE+KSJTAJENMTEMotzdVH6UE70JCJapeFGTSg4OsbWwdb24baWvpbIJJmS39L21AbpJt6m9pH2pGErHWwNWl10igzbvtIe/tIOxVHkfIgiRlSRYHM3Li5ZIQ/qiDG3HRHLgbyVJ1YyQWBGYRENSQagHkweW1ytiV7VvQsYC0sd5ajf1kzq9PpYq6JAYAxTir6i0x4wMxDZEWO5xp7GoFxzJBo2N26GxqWyW5auWElkA9qmHGImWhwWuidwE2Amc1l43jOMeBAilESKkwrw6yxpxGDZmYVZzFGJoVNKXOUmeym2CWxjJHBCH/qamcY4BI5e9ERFG8uxYZLhqcki3ge6yvDrHWw1XNwb4mYYXROYdBMuAQIFIkRa7HDVBdmNpcN4utj1FYSAAy/CwGbkVnVc4fj4f1MFDO4qSFiLfDRMkYmdklsel56Rl6GY8AxZsxND5il5aQhEzBoR3imXzodIuhbO6xkO6s9WsuaWfW2M7yDEJ6W/hZDogH6Isz0FWb13fWNPY3IcesYcGRbsuHhYXPZnMNO4KNFklqQHDM+JomZY8CRb83HdllxuAIoMJEXEzATKrK5bDhMre+ux+fZ6PAneW0yhtIn7+nxGYPYXLawyWH6KD1GIZ8TM6ept6moqii3NNfnmJEXDGnsiISnpOeQmHE81zbUxppZKlZt21CbO9Jxz4rmxMxxN2qVhZm8fcQe3s+gneWW5iJmSJUcGMw8+0viWQoziaW8F5OFmbxvc8fEDBhPzLVm57ATWDVGn3P13fWMkdn2/DboNKo7qzPyMqDXsrls7qg2PI9BvHeTaA3BgpmMb3M9YFbTVUMR1ZDEt8hzA4w41g4rPLQZI+MharKHMYiox73PvLAw895fwho0zDzMAKt37mpR4qLig8VljrLA/OKT4zc9vSkwukgtRVVFmbmZv+/4vQeQqFNqxcxlm6qfOv/q+RSDrP8OIy+JnBs713/1u6t53sJ5hmsNrW+2UsB4OFQrZu/YfrDiB786vKQAACAASURBVPaP7RSDrP8Ok9YklTnK/Fe/u5or/1SZ+3DuH/74Bw8gUae8xczz/ALOGuC8LfXocsebqz3PKJzwUMa3ucJxo195czXMECQy4dU7tb95czXMSKiotMK+EWekmnqb/MGbqwbMyCl8qkuXe+hhBUPuPIjyd2oKM5/z5krEbMxVMXAuEtx68DX1Tm3tsCKRHexREJYlpw5gGgimC2ByvKShBClyhaxbWFvgMAPWQ1gsjrkmJt+aD8vE1Z3V+ig9pGGaKiMvAzLBSpjPRcgnTpoIwjiJDmISMfM8AkK/uBsBoQAwf+KeVJhjq++uBwHY6EEKQxrn9cl1anIFAOf1ncNOc61ZdNE1cJj5mzdXiBmMMNNy0sg9PNNmTJs4aSJkggDAU3G4AttWApMwYcIE2IRjqbO466bIdoarS4AN7NURYoY51JIex3PCpQaqTiwbUMxQK5UQ3aJEyYx5SGGGDcVkN+l0OiSp1el0sMsDXypgKZV0kCHRoNPpQKMyzDwszzqHnbDkxPEcNEdYdjHZTeER4foofbmzvH2kXbh2iB5QBWZojTcJP2HW2NOIPR5lnod2RmIGK65QVrTHC469BdTF++SQwiwtJw1IZzfu2sgYGaTIDZsclpGXAeOF9Lx0kEnLSavpqskszITD6LjopNVJsHop7LLQWg+YWeosEZERZY4y3BYHpUgu3tqjtbB1B4YbYJLJboKdDRdiOwNnAcctSZGbW5oL+4JYM7t81XLkzeV4DulsWTPbOtgKj7GqI1V73t6DOJEJEjPYlYSSwLBbWFkIdeJWJSC+RTZcIL7F5+Wet/ewZhaaNUWRS+qV1TfK+zZXOA9CKvZ5mmpnY9ZPPs/GFBYVIDHjeA424Vg7rKRw7dFaBIzMHzMNG+hExWRhBi/XCt+pRdX7MFMuZuRjRpkZFGYcz3lfJ1qCG3swBxMXLmboAsUJIWaKq5JVUMNM+XdvGmbKfQc3qdy+UdatLSqsYaZhJtUD/u0bp186PfeJ3MD8MjZlzL96/j2P3KNQ3eO5OY/nyCr7H9f9R/rGdFlFfCJ8V+FdGesz/PIN/NmzZ59//vkXD7wYmN8LVS/s37+/+sVqBepeqHph0+ZNd6y+Q1bZ/fv3v1D1gqwiPhGufrH6t42/JamMqdUy8nCE5M0lT7hLfxPYv+HhYWUKz5w5c/DgQYvFIqu4YnWytIgKnzt3Dmhx3Xke8+V9m4vF1J8I4bjf4Hyp79Tqhwot1DBDVwRNQsMsaKBCQy8IzL4Z4X/+58FNfxrEyw7qRAhjlsqd+teZEd0/T4888N5g/BsnPxk4F9RQofEhjNkt7aduaT+l+0/Hye+/MfCn49/gNQd7IoQx+9eZkVTulM7QchJaXLBDhfaHMGbD50Z+dvhrXeMXZ1O4U6ncqf6zI3jZQZ0IYcw2/2nwOsfJb9/P/nVmZEX7qcK/nA5qqND4EMYMnmLaOzViHTQJDbOggQoN1TBDVwRNQsMsaKBCQzXM0BVBk9AwCxqowFAZ3+YG0ZWF8Fhf3re5Gmbq8UBI9Y0cxz311FNPPPHE+vXrV6xY8eSTT5aVlX3wwQcab656bjjakgMHDlx++eXh4eFhYWGTJk0KDw/X6/VtbW0Sd1vQ1an1OKTa2f/+7/9SvLk33HDDJ598olbnK7QrpDAbGRm5/fbbSd7cnTt3njx5UqFv1FospDDjef71119H3tzp06f/5je/UavnldsVapgNDQ1B93jRRRelpKR8+OGHyn2j1pKhhhnP8/n5+cCbazKZvv76a7V6XrldIYjZ4cOHIyMjFyxYUFtbq9wxqiwp79tcVV6CuFH9/f2JiYkMwxw9elRcIshzQ7CdDQ0N7d27t7Cw8JtvQmdjEnmbScVsz7N7Htj0QMB+uRtz71hzx6rVq5RpvJu9+/ZVt8sqe+99995y6y05D+TIKuUr4V/X/Vo6Zb1UzJYnL88ryzPXmgPzK3qhaFn6spvX3hwYdeZa8z2P3HP5vMuLni8KmEZUdOdDdxbvLO7t7SUbk4e0DMyqj1SLftXqj8zX+l4zFhnvK7nPH5WL1rm7dXfM4hjkThOV8VNmSX3J47sf1zCT+mkswqBhJttl6DtIaO1M6xvHvoeCop3J+zZ3efLyC/B5llWcVd3pg6d4S39LanYq1ZfgofTnmbxvc9WDGRlzEy/bQyKBSZAyshC2M5JpSjQoJcWbC/S6GBsUIuLqo/TNx5vbR9rLneUYBpSyVjpm0GEG37hRyJsLNI0kdS6SjTkGHAuvX3iw6yDHc85hpwdWIQozMmqgRN5cMswjFTUQQCLrJGELfcwwkCzy5tZ01bBmNjouGkIb727djRS5jJHR6XQLr1/oIYIiuM8DZhQYpLtJ3lwQg3jEgFm2JRuoDzXMWJPdRHGbkrEAMeAtRIbW6XTAsEtyflF+53hOGWYkby50hoyRwTCgi29aDBSj448ZRJMkA1wKXSArRxgK08NYH9sZch0zRkYKZhRrL2WhdMxKGko8R9KEaMhoEhlMmTWzlN5vQ4gG4J2aNbNkIFmhEXJzhB29AszgpmaMjMluyrfmQ6j72QtmZ1uyU9gUb/pGkjcX2i5wXjf1NpG8uVQ7qzpSlVmYqZZ2hncQx3PlzvLU7NQyR1lhZSGMjBOYBEOiAYa2hZWF8IyBB0x1ZzUcljnKUrNTYaRQ3VkdHRc9K3oWBPwFvD1gBqEwSd5ceJ7BwwMZxJGB0jHggJCXjgGHKHMtaKTaGbK7j44GkTeX47nCysJ8az6MZTC+vs1la+xppCQ5nqvpqsHnGRWzn7ytA9TOMFo6hrkOjwgvqiqKT44/9Nmhpt4mGNqyZnbL/i0wotNH6eOT4yGdwqZMnDQROzedTrdu27q2oTa8Eg+YoQyZIG8jMl96msIMxqIpbAoV4hRGrdKrBcnm483xyfHuRq3SMZO3j5h8PyMddOizQwlMAnZuCoYGNpdNp9NRHb1czOQ6USgvxEwo46cc6ZjJ482lMMOOKIFJIGkbUrNTy53lozAA1QZrZlFytHtMXpsMXVZGXoYh0QCS257fNv3S6ayZhe4F/KJh5uP5RmCvgYc8uNjaYS1pKIF0Wk4aY2SAG2U0WDkODaB/h1IQTxskGSNTYC0oaSghg2xrmPkYM+ldBNmLSi/F8ZyG2bhhVnWkqvZorSy0QLj5eHPmlsyb7wzcOrVxu3HWFbO2Pb8Nl48DlrjzoTu3PrJVYthNGfxn5PNMAQZyizT1NK3avCpqdlTctXGB+c1eMDssPCzmmpjAqCO1zJ4/e/3d67/44gsPbYs8pdY54hOvrdu27u5H7n7txGuB+f3yN7+cb5hfe7Q2MOpILY+8+EjJkyU9PT0kMB7S3mLmmTUOn2c4f0M1OHe8udrzzB1mMr7NFfaNfuXN1TATxUz5OzXHc/7mzdUwE8UMMhX2jUjI6SfeXJVghlP4VJcu97B1sJUiLCVrkDUPonzcSGHmc95c6Zh5XhUD17hb1CcdJ5y7Kmko2bhrI8zOiNZA8ebivD7MEnA8V2AtYIyMY8DRNtSWb80vsBaQGjEdIMz8zZsrHTOSuhO9QCXcjYBIMQqzMkcZTqdJ5M3FdWqby1bTVQMrADiv7xhw5FvzRVtbgDDzN2+uEDNyw0xaThpMtzcfb56qnxo2OSy3NDctJw1GoXPj5irgzaUww1nvUXJViby51BYEHDPjnUHWiZkBWvMk9QnToluUhGKec4SYYVthzaxOp8NVR51OxxgZaikSM0cZAyXy5nrAjAKDtJzkzcV9V7DswprZiMgIfZT+0GeHoIh6MSMvSXHaT5h54M2VjllNVw2ueYoyhatxb4FiJKQXFGKWwqYADy5rZhkjk2/NN9lNW/ZvmX7p9MzCzKojVYyRybZkm+ymoqoixsjI5c31gBnJm0s16Oi4aLAKplUtdRbY2QArFcDvCzsbyBUryg+Be55Rin17KMQMSWqBzhZIalkzC3S2e97ewxiZlRtWsmYWKXJhl5FE3lwKM5IiF3lzOZ4TsuEiby7Hc6Qk8vu2DrYCOyhrZpGLl3SXdMzkfZsrnAchtfo8LcRsTBX4+jGmpKgAhRmwJWcWZlJbSJStVDgGHLCBTlS1dMy8eqcW1e3DTAWY4WNGmRlCzGCR1t0mDllanMNOD/v+L1zMZDlRKCyKmVDMHzkaZmN/tiTqdw0zhY5DbyroG7GssoSGmYaZDA/4q2/80c0/ytiUkW3JDsxv/fb11/7w2u/f/P3AqMu2ZN96z60zLp+xfvv6gGlERT++88cP73jY99/At7W1vRwkfy+99NKDDz64Zs2aILH3WzMPHz48NDTEj/Un79vcsWpT0fkQjiEt79tcFWEylikhjBlcutR16rEcpaLzGmYqAkOiKRpmEh2lIjENMxWBIdEUDTOJjlKRmIaZisCQaIqGmURHqUgshDGTt49YRZiMZUoIYybv29yxHKWi86GNmYx9xCrCZCxTNMzG8pD6zmuYqQ+TsSzSMBvLQ+o7r2GmPkzGskjDbCwPqe98aGMm49tc9UHj1qIQxkx7p3aLuspPhNSa51tvvfXEE0/s3LkzMzPzJz/5yS9/+cvHHnvs/fff13hz1XsXHjhwYObMmRP/7++iiy6aOHHi1KlT33zzTY03V72YffXVV3PnzkUO1osuumjZsmV/+9vf1GuxIstCqm8cGRlZs2bNhAkTALbw8PDHH398YGBAkWfUWyikMON5vq2tTa/XA2YzZsx49dVX1et7pZaFGmbDw8PR0dE6nW7ixIkrV678+OOPlXpGveVCDTOe57du3RoWFjZlypTi4uLTp0+r1/dKLQtBzN5///1p06bFxsbW19crdYtKy8n7NlelFyFm1smTJ5ctW3brrbf+/e9/Fzsf9Hkh2M7Onj1bUVGxffv2C503d3BwcN36dXetvyswv9vvuP3//fD/rV23VoG6zPWZt99x+09u/Ymssjf98KafrvqprCK+En5kxyNdn3ZJb/5S21lfX9/MOTPLXi8LzO/B8gcXLV1UXFMcGHVlr5fFJ8dvfnpzwNShoqIXitZvWu96x+UXzK743hXKPntVUMr2ju3GlTe+8o9XFJRVVoQxMns79ior602pmq6azZbNGmYyvotFd2uYKfEauu9bDiWtnbnvK2U8z7S+kbyrfJWW1TfK+za3r6/vQsOssLKQpPfyBiRg1RGtQS5mw8PDwdfOZPHmYnROUX+RmdTzzFJnYc0s0nuJBqUkw4COhuaEcKqjRLmAUG5prj5KD7FBgb2KVIdpWZhBfxl8mAl5c9uG2kjSXGQ2bh1sTVqdtLt1d/tIe/tIO5Lpor/IBIkZFS9XIm8u8oiJhv2j6kTVFwRmEDPWkGhA3txsS/as6FnAYFjuLKciqsZcE9PS3+KZuwGiMuJYX+hfrBN9jQlkJDQkGna37oaGZbKbVm5YaXPZMMSZsE6o4cLCjKQpRMo7CEkM7iCj4DoGHEDvhb6mEh7amYfYtiRvblZxFmNkUtiUMkeZyW6KXRILsUGhg1URZhDgEq7fV9HoPY/1sZ3JwsxzhHvp7WzP23uqjlTB9UIYUCR+g0wky4TbCDtMFWFGdhrWDivJFUjdyLIOPbyfiWIGNzWQ1EJsW8bIxC6JTc9Lz8jLcAw4vOkbSd5cMpo3xZtLtrPao7UYg1d17YzEjOTNNSQaoC/KKs4yJBrw+V/mKDMkGmAMncAktPS3AMMuhagHzIS8udmWbHh4QDB7is4WGHY9R72k2hkVCx95c8mg+xzPCRXZXDbkbK3vrsfn2ejlJ69NpkKuwiWPw/OMxAyiy+qj9DCKK6oq0kfpi6qKmnqb5sTMARNhjAd8tPoo/ZyYOQgnCZsHzEgxSLuLgS6U9JBDPs84nmsbamPNrKXOQhZpG2qD4MJkppS0u8uEUKzS5xvl7SN2904tihlchslu0ul0EGMexCAavT5KHzY5zOaykWWpK5eFGVVW2SGFmbJKFJSS285k7Nd3h9lU/VSgwq3vrsd2Bqab7KZZ0bPyrfkgwPEc8GrbXLalK5ZqmIGX5GIm49tcd5gBDy5jZEoaSgqsBTVdNUiHA2S6wHMDVBNAwgVFSEnh7am1M/dTxHzwzYMIAfZJTrD0jT5oZz7xl7AS2zu2uGvjNu3etLVya2B+ixIXGYuMhZWFgVGHWu5//P6fGn/6u9//zkPDok6ptZ25bJGXRMb9Z9xV118VmJ8+Sn/l1VcGRhepJWZxzJLvL2l7q40CxsOht5g1H2/2sNCADUh0XhzPChO2d74dp9j/x/5a32uB+SWtSSp7o+xbOttAaQRFv3r/Vw888sAfXX/0ABJ1ylvMPM8v4KyBu2G9O95cbQxC4YSHXo31/cqbq2GGIJEJr96p/c2bq2FGQkWlFfaN8PrM8ZyfeHPVgBk5hS984srKIVc/qIKBe6emMPM5b65EzMZcFQMH4Ws+5S/ykHo/s3ZYWTMLTHRAiEsKk2mYOuB4Dub1UVdJQwljZGBeuKiqyN3qXeAw8zdvrkTMPI+A0LPuRkAoQM3rwxxbfXc9CLjjzYXZuOi4aFgqgwd8ubM8NTsVVgBGSUeT1ya39Lc4h52iLJJy54ihk1TYN/qbN1eIGYww03LSyD0802ZMmzhpImSCAMCjgDeXbGfU+qQH3lznsHPL/i24Sg4PC0OiAZca1LjmSd6qkJb7KiasQbhOjQ0F1gpMdhOU0ul0hkQDx3P4UoEk0TjDKZE31wNmHvYWUNt1mo83w+XDUo4+Sl/uLG8faf/2ilw2NIm85MD1jaRWf6SpduYrzDzw5krEDFZcyUvGJlXdWR2fHA+nMDM42hl5PYrTFGZpOWlAT7tx10bGyAAfrcluCpscBjyZrJlNz0sHmbSctJquGrm8uR4wI3lzyQbN8VxjT2N6XvryVctrj9YaEg1b9m8x2U1ljjIYwpjsJtjZcCG2M+j9WDMLG2ZKGkqArTa3NLe+ux4Ol69aDplwowDxLeS0DrYima4ocy01Bqnvric5bpENlyTTBS0gyZrZqiNVJJWvKMMutdsHapDVN8r7Ntfd+pniluS5INXOPAtTz7MxhUUFyHY2yh4Pm3CsHVZSuPZoLW66IvPHTMMGOlExWZh5O24UtcBXmXIxEz5m5FpCYQaM0r7aRoYbe4RWXbiYCX0hN0eImdwalMlrmCn/7k3DTLnv4G6V2zcqu8fJUiGKWdwVb519KzA/a4f1htQb6j+vD4y6t86+9eO7fvws92zA1KGilz5+aZN5k1++p+7v7581ZxZSvfo78dOcn86/ev66wnXKFN376L1sMSurbNy1cWkb0mQV8Ynw2vy1q7NWv/veu9SCi4dDqfONZ8+e/XUA/2praw8ePKhM4cFDBwseKrgz805ZxWsO1tTW1soq4ivhN998UyLR8cjIyNmzZ6Vi5gF2tZ0K4RjSGm+u2m42qfZo7Uyqp9Qjp2GmHiykWqJhJtVT6pHTMFMPFlIt0TCT6in1yGmYqQcLqZZomEn1lBrk5O0jVoPFEm0I4XdqjTdX4j2gOjGtb1QdJGMapGE2potUJ6BhpjpIxjRIw2xMF6lOQMNMdZCMaZCG2ZguUpeAjG9z1WW4R2tC+P1Me6f2iLyKT4ZU39ja2rpz584dO3asXr06OTnZ/H9/f/7znzXeXPXegS+99FJUVBRysH4b1S4iQuPNVS9gPM/39PQAMSTAdtFFFyUlJX366aeqNlq+cSHVN/I8v27dOuTNnTx58pNPPnnq1Cn5blF1iVDDjOM45M2dOXNmU1OTqt2vyLhQw+ybb76ZP3/+hAkTJk6cmJ6eHnqE4jJiASq6Ican0I4dO4A312KxnDlzZnyM8KfWUGtnPM8fOXJEr9d/73vfe+WVV/zpunGoW963ueNgoFKVJ0+eTEpKSk1N7e7uVlqHqsuFYDs7e/ZsdXW1yWQKsVdpvI++w+xvf/vbQ1seSk1LDZbfD5N+GH99vKi1KWkpNzM33/jDG0XPKsu8deWtS29Yumz5MmXFvSx151139vX10Zi9+9679xbca6417/vDvqD4jRKbzY2dGzBTn2l75uqlV6/csDJgGklFcVfFffXVVyKYPWh58OX/eZn8XFXN6ftK7otZHBMwC18/+XrCTxKyLdkB00gqunrx1Rpmsj/31jCT7TLypoO01s74d997V+sbhXcG5qiknZ33ba6GGcIjmhDFzB0RmGgNnjOBhsydDD7Pzvs2N5QwkxVAkozO6c5lHM+JYoYMWWQYUGElYE/F4QqICor8XBDKE2LhOgYc8cnxyB5LVYKYwdDxu/ezUMKs+Xizc9iJTLrOYWfz8WY4BEZUx4DDOezkeK59pH2UVTdpdRKwmrX0t0B8TMplophhSElLnSU8IhzDgFJlE5iECRMmkJkYyhlqwEiPHiJ7hj5m+ii9zWWbful0YNI115qn6qdCOiMvAzm/MGj59EunF1YWjsaSw/iYpIshLWxniNmYUe1Iyfru+oy8jOrOao7n4pPjbS5bvjUftHuLGQSvNNlNwtB3ovHwqExs/kCepSA6W2NPIxWHr22ojWRl9zBuBMwwkCwZ2xZuarzTIdA8SmYVZyE1MQWbTzCj4gsC72hmYSY6mUSXNEBSOwuPCIdolRBNkixPtmXMpzLDI8Lx3kEHofCYidbB1pUbVqIrQZ4K8e0PzAorC91RP0rHTBhKH5Cg4nhiqyJd5xVmWBhDuablpMHTEpiXoRGk5aQxRiarOAvpmBkj4xhwRERG5FvzC6wFEH90NGQ5JBgjU2AtKGkosXZYIRo9FLd2WBkjgw2rbagt25KNmIFk0uokCBcNEMrFDIjy4KYWknBABFNlfaO1wxq7JHbxTYshlD66DuzMKs4KmxyWlpM2SrY4e8Fs5OvjeM7H7WzipInwAGDNLPRsFYcrIHI8MJw39jSmZqeWO8ttLlt1ZzXSnttctvjkeH2UHqlnoZ0lMAnAEJlvzZ8VPSs6LhoeMzaXzVxrzsjLsLls2NGT0XuzirPMtWaby7a7dbdEzCoOVzgGHEhSW91ZjQSWZCbYU91ZjYGlgWFXtBsQtrOKwxVASNXY0whVOQYcCUwCFV4Tgu6DSSCGZLpAu4smgT9FtUvqG6fNmAYDLeSOnRs3d9qMaaKR46l45TCiRepZim4Vgq1v2b/FOeyEWxKDmJO9qDBTet8ovGzq3hcKjJkjxIzjuUOfHaJ4xNwN1sesPy0nDaO6C4URs/P2EVNjfQqzBCbh0GeHDnYdNCQaLHUW1sy2DbVBZlNvU0t/C9Upkz4CJObGzUUCZBwZu8OMHILDxTT1NoF2vB4PfSPK+DAhipkP6/dcFWJ23re5FGbQMRoSDTiUSGASDIkG4P8urCxEUnDILHOUkZLk3Ydv+FBnVnEWWRzoO5B9HAbBLf0tIAx1pmanwiHJPn7BYvbvPTwUZp5hV8NZDTNtjniMpQb19I1B3M7ufuTumdEzf/bMzwLze6D0gejvRS9dsTQw6igt8+bP++KLL4J+nTrzF5kX6y++5sZrAvMzLDVEREbMnDszMOooLTMvm3ns2DGfYeYn3twxH5nZO7PnL5rf0t8SmF9Dd0N8Uvz67esDo47SsnDRwi+//NJnmFGvTZSvcRqFHP2TMvAyl8KmuJs0IoXJ9AU7Bvn3t7kKxo1+5c0l4RFNX5iYeXqnFnUTmSmcsgOKq8aeRn2UHif3lq9aDhNxZGbVkSpyyqOxp3Hjro2inEWkRip9YWLm1ZonOt1PvLkUQsJDNWDWOtiKMwlCC2XllDSUIH2osCA5D6J8rE9h5nPeXKHdVI50zDysikGdSHxLqSAPRd/PkCELVipIeTIN6yE1XTXQ/eDyhWPAAQsdsMqI7HZkWUj7BrPR2ejktcmGRMPC6xfGXBOTb82H6aXqzmp9lB7S5Gw9jkFgZhIhxwUEuTesdMw8rLCAR8jJUqG/IEeIGU7hj7IKzoqe5W5vQWp26sRJEzmecww4YF4fly+odWqSWpIywzeY+Zs3lzJaeCjELC0nDUah5OtHWk7axEkTp82YBhtmQMBSZ0lgEmAOvuJwRURkRHhEOKytu9v/I8QM78K2obZ129a5w6ylv2XajGmk/Xi/Qg3kHYN1kvKjCwg+w4yqFw/dXTYK+CRBYYYvFRzPIZkuLLTqdDpYUsDlN8bIQCYs1Ol0OiQrdme8B8yk7wcBMl3ceHHos0P6KD35njNumPkEkjEr8RNm1IolmiEdM2ENgAQuAmOdKmpnaJNfExRmJQ0lSKbLGJmMvAzYhrT4psVLVywtqipq6m2KjouGzMzCTMbIFFUVmeymbEv27AWzWTNbe7QW92gILfeAWe3R2uWrlqfnpcOCPtVWyhxlEZERljqLzWUjR2ocz6WwKSa7iXzPocqiGX7vG1GTXxMUZhzPIZkuUHHiHqT67vrc0tym3qZZ0bMgE/Y5ARsucPHueXsPZoqaLcQstzQXuXihWlBE7eEBMl3g9yVN4niudbAVmYA5ngNJUe2I2Xnf5iqYBxGtPWCZQsw8q/Y8x+a5rOieVNiEA6u1WByfVZgjMVFgLci35rcNtYnKI2ZevVOLVh3ITLmYOYedsAiuzEhhO+N4zss6SUtqumrcba0MxLiRNMV/abmYeWmJKGZe1im9+AXazqQ7SFRSw2yMhXxRr1GZWjv7dj/I5uLNL/zlhTdOvREUv9HtXAsWLQiYqa/885Xv3/z9e0z3BEwjqWjhNQtFvqf+8/t/Nt5vzMzP3GDZEBS/xFsSL7viMnem3rvj3ixTlruzCvKzHslaYFiwlFmqoKz3RQyLDf/617/odeoTJ060c+2vvPpKsPzqG+prf10ram19Q33h1kLjeqPoWcWZdXV19Q31iot7U7D5teahoSGe50c03ly8c4Mlcd63ucFitBQ7QzjuN1x+CMa70jCTcmerS0bDTF14SLFGw0yKl9Qlo2GmLjykWKNhJsVL6pLRMFMXHlKsCWHM3yB34QAAAB9JREFUzttHLMUXwSITwpid921usOAhxc7QxmzUA/8fp+IYHhdHwt0AAAAASUVORK5CYII=;" vertex="1" parent="1">
                    <mxGeometry x="260" y="-131.93" width="155" height="494.93" as="geometry"/>
                </mxCell>
                <mxCell id="6" value="" style="shape=image;verticalLabelPosition=bottom;labelBackgroundColor=default;verticalAlign=top;aspect=fixed;imageAspect=0;image=data:image/png,iVBORw0KGgoAAAANSUhEUgAAAHwAAAIMCAIAAAC4wV8BAAAgAElEQVR4Ae2dDVwTV7r/QxVcVo0VxTd8A2wxClbUGt8LdrO+1FiwvlW0pKhQaLXYSkt3UxoufaFSvbi36Y3QLfRzKSsr3FoSMU3ZyLTSjS21LX/+bXeLb6vVuksUjNoiXeeqT/f07Ewy5GSSkamHz3z4nDk5zzkz33nmzJlzkuenYGX453K5fvWrXy1ZsuTMmTMyPHxWIceD7urqeuuttwwGwz//+U85Hv9P0C9dujT3nrlz7pkjzXb3jLvHq8bPmjfLt+bunnn3XVPuIrKNGR9z94y7iUz8VXhD+oYvvvgC+cdP0Nvb24eNHlbeUi7NlveHvMn3TP5dw++kaa68pXzmfTP1FXrJmkMNbdu/bf3W9Y5DDvfQR44bybCMNJvpkGnmkplvn3lbmuYYltGkaF5tfFWy5lBDla2Vj+U/RqFL5FjAnUKnnk67l/b29lutT88pzSmyFqHOV0ximmaaJ3N5dC8ZhRn5e/I9nQMnX5uuLWkq4WS63eU8SPP35OsMuvrOeig8InqEWyuGZfL35GcUZjAsM00zTRmmRCUzCjOu7ULru4/u9sRdHtBtl231nfV1HXVmp9nsNNd11NV31kPa7DQ3XG2wnLMAINtlW8LyhO227Q1XGxquNtR11HkCxxm9mBwmTYoGFR4RPUIZpkS7eKKkqSS0X6jOoEOZZqdZpVbpK/SQqVKrzE4zwzKcOlF5eUDXGXT6Cr1KrYqZGqNSqxJXJqblp4VHhKvUKpVaVWwvRoB0Bp1CoYicGAlX6FphdKr8BO7pfECoTr4h4gsfFduLF6ctLrIW6Qw6k8OUuDIRLja/TigvM+jIgxQKBfI1ZZgSAQLo186cYRmry5qal8pHhnL8Aj1/T742XcuwTNWxKp1Bp0nRZBuzoY/yM/TqU9UFNQUMyxTUFFSfqkanAQk8E5WEj6Ar5JSHXYGXI+TpRNBtl205pTlu24JML6HvPLCzrLkMrwd5ek5pDrr2KDNQ3Qu6hpoUzY9uddGqWavZ8toW6Cshk9+vIZfEzwHSpNCjJ0Vr1mo0azW5b+TmvpEL6ehJ0UmZScmPJlsvWqGr5TeEcgSgL81YGhwSrHvuescNlxxZVbZWxs2Oi54UbWw0qtSqhBUJmrUa3XO63Ud3X/f0tZrsVwPj6SaHacCgASq1KtuYbXVZGZaJT4w3OUzZxuyc0hx0JfwFvfpUdW1bbXlLub3LDv1GWn7akg1LTA6TyWGyd9ntXXZImxwmVNLeZS9vKUew+AkcutVlhYOHYiVNJSaHqbylHHrq2rZaZG51WaEtaAjS0FD1qWqTwwRArnXriSsTK1srkSFK+NinmxymhOUJa55eo6/QQ11BQUHKMCU81v0OHR0uSqB7GeX4kMChMyxT31mvM+g4Y9P6znrbZZsPlQ+PHO5p7OQ7dBhgadO1xfbihqsNwyOHwxjOdtmmSdFst203O82Wc5aSppJFukVoeDc8crinExDoXjyZiMznQBdZm/fmPkIvbylHA4PFaYvrOurqOupgAJdTmpOalwppeDsoshbBrkqt8nTxr3dEdJaRZdlbcBrAe28VU9JHTxfTpCdb6unX1zSk9/TR40evfWbtxhc2SrONu2vc0oyl0rSFt7LqyVULli1g3md6xMrRgMED4mbHTUmcIs0WNjTszil3StMW3srEGROnzJjyJ/ufCKBbzlk8zZ/hXQeae8MzBdKmQ6bpC6dXfl25/8J+abbElYnb39u+v0Oi5tBJvfHZG4/oH/mz488E0IXf9ND7m6eXT5gqWaRbxBn/0j7dfZ9e3lJucpi227ar1Kratlp4/WNYBt7fTA5TZWulzqBLy0+zuqzKMCW8rcFbWWVrJbyqgbPz324odDfQjY3G5KxkTYomYXlCRHRE5rZMTYomc1tmbVutMkypSdFoUjSrc1bPWzYvdlZsZWslnlnWXIa/pta21WZuy4QpM9ThUOhuoCNqZqdZoVBExUXpDLqouCiTw4R6En2FXqFQwNwAnqkz6NDUo+2yDXYRbkj0BOj8CUXOQXq/KzCfSjBO50CPnRWrr9DrK/Tg6XA0AtC3GLdAP7NIt8jtOqSX0LudJYcjgTluYUacaQBjo1Fn0FUdq+q2BmOjEW7T1LxUTYoGtVVQU6BJ0cBp5pblopd2zmEQQL9WV+LKRFi+iZwYmW3Mhpf78pZyZZgS0slZySaHKTkrGTKhMei+0TXr1bsXFOZMdnsJXfgxjk4P3Wcoh5/AoZe3lCdnJaO1AVj85JswLFPeUh4RHQHT6PCQc7tyZO+yG6oMbrkTQGdYxu0qpb3LrgxTwpQWPCqtLqu9y47WLWGiDjIZlkGTX92OXmCco03X4gvT/Qf279W7F2RCAeBb0lSCPG6aZlpQUBCMWdEiMp8gDh2tEEAxyzmLp8tm77Jv3bUVrV3AGd2ENVLSITn//PkTXuic8S6LYRmFQgErn2hsyrAMjJTQyrJKrVIoFNCKb9ChTrfHybAMPvS6NpMKpw8zw8owJUy78tcSUG1kno7MApHgdC/+gl7bVos6Dc5hC3g6Dh2WUHBbBL28pTw+MR4+QpmBWq7Dj8BfaQ50bboWHtRobAq7wSHByVnJ8NBLykqCTG26trK1cnXOatiNiI5IWJ4AyxGIBf84BaDn78kP7RcKD3z8lmJYpratNikrad6yeVXHqlRq1dZdW/UV+iJrERySvkKfnJUM3Syny0IH0HM9HRYn0eCyoKZAZ9DpDLqMwgxY7NYZdPOWzYNMOJ+y5jLY1Rl0tss2GLSVNZftPLATnTCewKFXn6rWGXSoZEZhhs6gyynNgTrxhWkoqTPoyprLYGEaSjIss/PATp1BBzeWp5ExwzI9GjoOiJ/mOCC/QLc5OHT0HQpjoxE3rDpWhRPHPxJOexoZyxs6v6sVpsD/lAOdYRnxdaJWBL7aJ2NPR6fnc4IP3eeqiAwpdPr9dPr99Pb29ojIiH3n90mz7ajfMX3B9IqvKqRpbt/5fQkrEoreLbKcs0jWIjT0+uHXM/WZ7n9zdOHCheiY6I35G6XZkjOSo2Oj1z21zrfmdL/Vrcsls42Jj0namORbc2KsUp5MWZex7pPDn7hZOerq6tpXt89SZ5FmqzXX1tTUWPb50lytufaZ3zzzUOpDRIdaXVNda64lMvFX4YONB8+fP+8GOsrq+Ymurq6qqqr/+I//6PmH6vYIf/rxrtuPe2YmhX4TrguFTqETE6DdCzEy8QYUuniGxDVQ6MTIxBtQ6OIZEtdAoRMjE29AoYtnSFwDhU6MTLwBhS6eIXENFDoxMvEGFLp4hsQ1UOjEyMQbUOjiGRLXQKETIxNvQKGLZ0hcg8ygf/fddy6X6/z582+++aZer3fd+Ovs7CQ+75tqIDPoZrM5Jydn69at999//9y5c3NycrZs2XLo0CF5RTqWGfQ9e/aEh4cHBwf3vvEXHBysVCobGhquXr16U32XrHGZQW9vbx89erTiX3+9evVauHDhsWPHyE76ZpeWGXSWZdPT02+77TbAHhwc/J//+Z/ffffdzcZI1r78oH/00Uf9+/cH6MOHD6+rqyM74x5QWn7Qr169escddwQFBfXu3XvVqlWy61tYVp7yDIWFhSEhIaGhoS+88MKVK1d6gO+SHYL8PJ1l2a+++mrgwIHjx4+3WCxkp9szSssSusvlWrRo0dKlS8+ePdszMJIdhSyhd3V1/fGPfywoKJDXOxG6Mj9B35ixcVL8JMm2uMlx4+4cN+6Ocb60OHnS+Injo++MJrKdEDthzNgxcXfFEVn5q3Dhy4Xt7e3A/Sfo8xLn7ajfUX2yWprtzf//5rLHlq3OWS1Nc9Unq5+tfHb0+NHlLeWStYgaemrXUwUvFzidTjfQy5uFwqYS/bqp28L72vel5KasL1jfbUl/Fdhu2x4ZG4liGPirWm/qKagueHH7ixS6pAIwFPqPKgPeeKi/ylDoFPpN7dNx9ReBMIhF1iIUIWiaZppKrVqcthhuAogzDCGF8YjEnFvkZ+jp0zTTvHk8ch6kuPqL90IklnMWs9NcbC+GuD+5ZblmpxmCZ9u77LlluW6DeckAOsReUKlV/Qf2V4Yp4xPjrS6rzqAL7RcKwY3+0PoHpDmiSdEoFIr+A/sLhLkBv+NA5wQpQQFnOE7KCbLDsEzD1Qa30PklUVVygo40MTQpGjwKBgp3BOIQCoUCSgrc4AzL+As6xPCCeA7JWckgSAN8ORfyloBe21bLCSWCTpsIurHRiCs04CiR+guunoHuErwk3rRXno4HLHTbSeE1epPmx74ReDlC3QvH01GQHRRbB0JFLtmwBAKbeYotBEco4OkZhRl9QvugpyUKtQfuPG/ZvMkJkyEOjDJMCa0X1BRAkB087o8o6Pi9DBEHITYhRFvUpms1KRoIhwexCSEgKQSUgbSx0ZialwpxlipbK2NnxUbFReFuKAC9rLms6lhVkbUI9IPAf3UGHQonBVGeIJYUhIqEWFJEng5CRXBI+XvyIUgUyApBoFW4VLVttdAQRHCEkvoKPRgaG436Cj0cJ0S4chujxytPx6Ej1bDwiPBsY3biysRie7HJYYIwhBBrF6LsgvoWpJOzkkP7hSJXVSgUSzYswe9ZAehubx38kNwW6DaT4+moU+ZoxvgWeUdA/eX6hfRmGgA/QwR9zdNr6jvrOcHZ8JKenm/XrhAuyQV0SKGDoF23ZAUK8KGDng8I+wgYevORsHKet9C37toKcSwhDCHqraZppu0+uhuNVXUGHSoJwzuwWqRbpAxTQsnttu3XpZswSUSGZUihe3PmwmXcQhc28denXkHPKc1BCi7QsKe3Mp1BFxEdAYUhSCqkIdwevL+p1KrUvFT89Y9C/3FBY17iPB+mdvHuhcgvqKdf5+4bdHxwSaF7IuBV9+LJ2I/5FqdlxZYVk++ZvO6366TZ7l1974DBA1Y9uUqa5vBWEh5IeOzxx7799tubvHJkdpqXb14++s7Rs+6bJc02ftr4X/T9xfRfT5emObyVmKkxG9I3nDlzxlvoAVJ/2Xd+35rcNQ89+5DVZZVme/GdF8dOGFt9slqa5vBWnq149vltz7e1tXkLXThsPHqQovkHThfkSf2FPkjdP0gDqv5CobuBHmj1FwrdDXQ00xYg9ZceAh2p1HB6RdJdYYVrb4eMHOh+V3/xHnpla+UW43Uxa4EN6WMIlOFPAxTUFKAJRYEakPoLwzL4DCvDMluMWzQpGqvLWt9Zn23M9nSc3kIPtPqL99CFZ8mBsqfHOH4NONBxOWkv1V+QmhnMsOaU5mQbs00OE2g2cHSr8aa9hR5o9Rc+dJBgUYYpMwoztOlaiEhuOWfpq+wbHBIMmTAWGhE9wgf1Fw50NIXHsAyR+gtajOWP3PA6fYSOm+Fpv6i/8KEjb9UZdAqFwuQwgb6NQqEAoRdOj0eq/iIAHRciwc8U0hyUu4/uhu9r2C7b0GSq25KoKgJPRzaBSAQIuoD6i/fQBdQOS5pK0DdkJPV0v1wDPvRFukWwMKYz6DQpmmxjtr5Cv3XX1gGDBqzOWQ0ihGn5afoKfW5ZLsgVEqm/CEDH1V/gGwZwn3HUX+CGgEbh6Zq5LVNfoV+kWwRMOPcEAtVzPR0EVJAoCy61AuvamhQNrEEjoRe0Qu2N+gsHOi70gtRfOJousKQHrcDiJ5TkqNSAWBlHUQYR93a5DjcIUJrv6d02hPr0bku6LcCBzrBMWXPZ6pzVoPiHTGBZHO16mbC6rKDH5LZ8z/V0t4eLZ3K6Wvwjb9J86PD1BVys1pt63Jaxd9k5C9x4MRlDx0/Dh7Rb6D7U44MJhU6/Kn1Tvyrtg8/6ZiLk6b9jfvfO2Xek2Sq/rnxg8wMpuSnSNPfO2Xfy/5g/RjXmrb++JVmLqKHc3+c+v+15N785WrVmVUp2SkZ+hjRb2m/SZmhmzFo4y7fmUnNT125dS2SbtD5pVNSoh595mMjKL4WTHk4qLCpEWiQ//aSx6ZMm23s2ybZ333vXbDGbLWYfWtxv3a9/Vv9w2sNEtvvf3b937953be8SWfmr8FdffYXCGPwEHZbvZPGfamLchMtEoVPoxARo90KMTLwBhS6eIXENFDoxMvEGFLp4hsQ1UOjEyMQbUOjiGRLXQKETIxNvQKGLZ0hcA4VOjEy8AYUuniFxDRQ6MTLxBhS6eIbENVDoxMjEG1Do4hkS10ChEyMTbyAz6C6Xy+l0nj179vXXX3/mmWecN/4uX74sHoSUNcgM+t69ezfd+Fu8ePHs2bM3b96cmZn55z//WV6RjuUHfciQISEhIcE3/kJCQgYOHPj+++9T9ZcA3qkXLlwYM2bMv8RfFL169dJqtSdOnAhgkwGoWmaezrLspk2bevXqhdRffve7333//fcBIBPAKuUH/dNPP1UqlQB95MiRVqs1gHgCU7X8oLMsq1KpQP1lzZo1sutb5Kr+smPHjpCQkF/+8pcvvfRSV1dXYNwxgLXK0tNbW1vDwsImTJggx75Frp5+8eLFpUuXJiUl/eMf/wigQwasall6eldX1969e1966SV5Dc/RRfwJusvlioyKHBs1Vppt1JhRw4YPGxM5xrfmIkZFDB0+lMh26PCho8aMIjLxV2HtUu1nn33mBnp7e3tEVMT+C/ul2YoPFE9fOL2ytVKa5vZf2J+4MnFH/Q7JmkMNvfH5G1nPZjkOOdxDHzlupG8/7/DBynTINHPJzLfPvO2DrW8mmhTNq42v+mYrxqqytfKx/McodKEoJmL4urWl0Kmn0+6lvb39lurT8ejB10K+oNgW/C4ClVyctlilVqGSEJEYfihd11GHJGE4NfwMuxcUjodzqvxd/EFa0lSySLcIAilci1fkpfpLXUed2WmGeC8gHmN2muMT4y3nLEidhN+uPKBDHBVc/WXrrq19QvtAWKPdR3dzwvH0VfYFJRwkCcM/cwgogkYv/BBVqE6+LSegiFvoKNwR31xm0HGhAVC9gIgrCBAeA0ngBgcQuKf7DB0F2altq9UZdCq1ylBlgLD3/Dqh3Z8z9PrOegjazvc1Iuj80CPI04usRfx4OhzpBH7rvkD3i/oL/1AEXo5Q94J7+uSEySikDkpMTpgMkjC2yzbh8LTC3Quu/oKCRMExV5+qRuovKrVqzdNrdAZdTmkOxOiBI4Fngz89Hd3LEIawsrUSYhNqUjQQhhDFJoSjNDYaNSkaEEfRpmutLivoxHC4C0Dnq78kZSXNWzYP4jjVd9bXd9ZDWl+hRzoxRJ5e21abuS2zoKYAjgqpvxgbjdc6DRB6gY9w9ZciaxG0C7dUWXMZaM+AtoanIDu+eDoOHWILKcOUIPGSbcxWqVV4bEIIemVymJKzkstbykElw230GQHonMsjIE/GLymQg/fpcJw6g47TIwnEXROomWGZ+MR4t6cJcXyIpwHcQocj0FfoFQoFSMoFBQVBZv6efGWYMjgk2OQwKcOUnqT8iKDXd9aj4Z3wyQt8yoHOsIx4RRnUnKfT9BF6/4H9QdDFdtmGPB0a01fo+4T2AaVC6H9h/Gt2mhOWJwB0dFicBBF0jq1vu3zovtVDauVL94JkYHJKc1LzUstbytErGbyqgSYnGiMXWYvABC/JP1AK/fpM7602DcD3gwDl+OLpAToU6uk3x9NHRI24/5H7Vz25SpptjGrMvQ/eK01beCv3rb8vYXHCgYYDPWLlaPCIwXPunzN/1XxptqFjhk69d6o0beGtzLhvxszEmWTQA6T+YjpkUi9U7z6y+92L70qzzV81f8efdkjTFt5KWXNZ5rOZf3b8mcDThV+v0UszPpzHHwOe1F9on+6+Tw+o+guF7gZ6oNVfKHQ30FEI5wCpv/Qo6GJmUnNKc4SnKAjG6Rzofld/8RK6p0lK/LEBoiycHP6up2mA1LzU3LJcmCTxKN9SU6BJ0eBBv5EkDD7Jzm+UbO4l0OovXkIXfoyjk/T0GEcFOPPpKD81LxWWfuo66iInRiKdDVSAYRnQiTE5TCjod3lLeUR0BFrMQstJuBVKE3h6oNVf+NBhnKNN12YUZoA6OsMy/Qf279W7F2RCAeDrg/qLW09HN3TD1Ybttu1uoaOVI+BoOWeJT4zfumsrgi6sY0IGHV0rTsIv6i8c6MhVYbpYX6GHRpFYOBqbwhniyzTXFioVCgWUz9+T76mDFoYusLIMk6nKMGWxvfjatYFp1627toLSObSLjp/Diqx74Rv7NydA0AVWIYigl7eUI5V15OmwHApzqBHREeER4WgNRJbQtelaWAnL3JapSdGAqoq+Qh8cEgzLYDqDLikrCcpo07WVrZWrc1bDbkR0RMLyBOiRECC+iwhDr++sT8tPi50VC4IjaLmZYRlYw9NX6JOzklG3zmlIltAZloFFXli3LKgpgN2MwozqU9WwC2vQqCflLA0jSZidB3byiXt6kELNtss2XHsGZaJ6dh7YqTPoqk9VoxwQpIHdjMIMT31aj+5e0Ml4SuB9uqcywvluPR0GJ+iLFVCDsdFY21YrXBv6FI04UQ4n4Z8HKadS33Y5fXq3lVSfqvYehNvaPEEHGUC3Jt5k4r2/2/Iyhu72fIgyBaAT1UNamEKn30+n309vb28fPnZ49alqabZCc+HUe6e+fvh1aZqrPlU9N3nuC3tfqD4p0Qmi83r14Kvpz6S7/82Ry+WKnxafmZ8pzbYyc+WEKRPSnk7zpTlD5kM5Dz2Y/SCR7ST1pBUZK4hM/FJYl6NL35z++eefu1k5+uGHHxqYhgPMAWm2+j/VW/ZZ7A12H5qrt9cb8g3rN6wnsrXss7z3p/eITPxV+JNPPrlw4YIb6Cir5yeoEMlNuEYUOoVOTOCn2ADEpjfPgHr6TWBPoVPoxARo90KMTLwBhS6eIXENFDoxMvEGFLp4hsQ1UOjEyMQbUOjiGRLXQKETIxNvQKGLZ0hcA4VOjEy8AYUuniFxDRQ6MTLxBhS6eIbENcgM+sWLF6n6C/FFFmlQW1u7efPmTZs23XfffbNnz3788cezsrIOHTpE1V9EghUyt1gsQ4cODbnxFxwcHBISMnjw4IMHD8orvLT8upeoqCik/tK7d+/k5OS//e1vQheq530mM+gsyz7xxBO9e/dG6i//9V//RdVfAu5XLS0t/fv3B+hjxoyx2WwBb9LfDcjP01mWjYuLA/WXdevWya5vkasmxquvvtqnT5++ffu+/PLLVP3F3/ehh/qOHj06aNCg2NhYOfYtcvX0ixcvLrvx53Q6PVyXHp0tyz79hx9+sFgsRUVF8hqeI0fgQj99+vTDDz8cLtXf4MGDBw0aNHjwYNIGBw4c2L9/f1Kr8PBwaNEHQ99MNBrNDz/8gHBDggv91KlTT+U/5elXgaQ/t+m2/I73dkyaM+n1w693W9JfBe7PuD92Vqy/ahOux3LOMmfuHP6jnkIPoCgJhf4jXOrpDO1ervfytE8X7qaJPqXdi8fuZXHa4rqOOoZlylvK3YZ6Z1gGF3oB7kgSRkA55ucP3csoNJw+XZuuhSgulnOWvsq+boPsIKEXFIykpKkktF8oCg1hOWdx27r8oEPwj6CgIAhopDPoEpYn9FX2VYYph0cOr+uow4N/KMOUQUFBEO5aOHQDBzqKbCQcZGfN02vMTjNAB/UXvHVPkY3kCh3FUcGFXiCwF37acGHgxs8pzUGxb/hdsG/QwyPCkdBLX2Vfk8OUlp+2ZMMSFCMCHSfe4i0EnS/fgoPwEnqRtai+sx4M0dWFm0+TotGkaGJnxUbFRYH0RwA9feeBnRD1x21AGU5mQU0BCkkDUXLwM0dpgSEjnCHyIPD0JRuWQPAdjv5Kn9A+IMoCwXpQCDDUEEp4gm67bFuyYUlUXBS8jeORjTjRfKAqdCVgFx0naujaA9YPno76StQALvSCMqFVb/rKaw4iAB18DYWtK2sui50Vm5afpq/Q45kQUUpfoUfqL0SeDoFWrS4rUpQpay7bYtySbcxGns6wDC70AidYdawKXBCiQqJD8j/0iOgIlVpVbC+GAVZyVjIu9IK3Jx46Xhuk8Tr5n3qZw/F0OJH4xHjcvLK1EsXqwvPdphenLQYg/E/94+lbd22NmRqDNJ+CQ4JxoRe8VRwQHs4PLyPs6ZySoCWEBm38T73M4UOHfsBLc36xuo66hqsN/Hw/dy8jokdcG5kioRcYSynDlCASAz4C41/IKbYXa9O1bg9LoHtxW158plvo4qt1W4MfPB0fisGImCP0AgEL0UsdqHeq1CpPQp2knu72xEgzZQad9PS8KU89nU54+Xlu3Q/dizeeS1qm0FwYFRs1f9X85EeTpdnGThgbNixMmraWbFgyY8aMzs7OnrVcV2gpjIqLmpc8T7tRK802ctzIAYMHSNPWgocWzJgx48qVK75DxyNse/JoPMK2pzJ4/o73dsTNjnvtw9cg8KoE/+9bf9+EGRMkaMh22VbzTc2cOeLWSNEbKU4NpeGN1NOQHKQbUTRsZEUfpO4fpPYuO6iPLtmwRF+hB0kYeFWBfAihrwxTljSVmBym6QumQz4M2EuaShBihmXwOQ06ZPyx2+Ev1+WW5cK8WlRcVFJWUnJWsiZFk78n/xrZYWOHwUfZxuzQfqHadC0ns76zHp+TQRMd6DJQT3fv6YgaPs8H4rtonQXF6se7F3BqNPvIj4bdczwdHSTyBu8TAuovvg8ZOdDRPB+HLwgkcDLNTjNMAPC1m+GsvPf0gpoCNHntloiXOjH8N1IUi7uytdK/6i++Qy+2F8P7fXhEeFp+WuLKRJVaNU0zzeQwDRg0AD4yVBlMDhNk4u5vdprhmukr9LD4olKrYBWYFLrwY5xhGS91YjjQA6r+4jv0hqsNMG9ldprrO+vrOurMTrPlnMXkMCUsT4CPYPLPcs5i77KjSVGYfgPx5frOelQJPifH93Q0zilpKkGrvfl78vuE9gntFwqZsDjnSScGJrg5D3B0c3Cgo9nQQKi/+A4dHS4nQTok55jDLgc6p/EMchwAABsISURBVHdCmi64JAzq7vBMhmWQToxv0IUXpvuE9kHjXe/VX/wP3S1E0swAQRdYhfDk6RzoePx/tDIHQwPv1V/kAR3XdIGxKazGJWUlRcVFZW7LrG2rVYYpIdOTTgxojpgcJrce4Al6INRf5AEdViNh6RnWtSGtM+h2HtgJi93KMCVketKJYVgGXxbnoOdAR0IvgVB/kQ10DiP+LurT+R95k8OBHlD1l58PdE/DEm+IMyzDhx449ZefD3Qv4Xoq5ha6p8Ii8yl0j9/aFUlWwJxC79nQn/jtE3l/yNt9dLcEm/5/9OOnjS80F0rQFjTxqzW/ipkaI01zv//097PnzO7+h15nz559ruC5dZvWPZb/mATbqoxVcVPj1m5aS9TWo4ZHH3ryodWbVhNZQeG5v54bNyXOB0MfTB7RP7LuoXXd/6Sxs7PzL3/5S+OHjdJs73/wvu092/sfvE/U3PsfvP/8C89nZGQQWUFh+wG77T2bD4a+mTQ3N/N/Ycz9SSNnCbVn7lKlgJtwXSh0Cp2YAO1eiJGJN6DQxTMkroFCJ0Ym3oBCF8+QuAYKnRiZeAMKXTxD4hoodGJk4g0odPEMiWug0ImRiTeg0MUzJK6BQidGJt6AQhfPkLgGCp0YmXgDCl08Q+IaKHRiZOINZAa9vb39zJkzJ0+e3LVr11NPPXXmxp/L5eIviYlHE7gaZAb97bff3rhx44YNGzQajVqtTk9Pf/jhhx0OB1V/CZyLsFarlaP+Eh4e/uGHH1JPDyD0S5cuRUdH4+ovK1asOHnyZACbDEDVMuteWJbNzc3F1V9ee+01/o/vAwDKn1XKD3pra2u/fv3A2aOiourr6/3JQ5K65AedZdn4+HhQf9HpdKdOnZIElD8bkSX0Xbt2gfpLUVER/0tr/sQTmLpkCf3EiRPh4eGTJk2y2+2BwRLYWmUJ/dKlS6tWrVq+fPn58+cDiycwtXOhX7169fvvv78k1Z/L5Wpvb3e5XEQNXrhwoba2dtu2bRcvXiQyvHTpUkdHR3t7O6mVz+W/++47/oXjQj99+nRaWlrEyIjRY0dLsI0YOWLQ4EERo4ibixgZMXT4UB+OcMjQIYMGD/LB0AeTUWNG3Xvvvd1/P50fekTg5x3iP+L8eFd8hd3WQH9zJBRrt1t8vhWg0Cn0Gx0+7V58u4HcWtFf1/XsX9fdajJqVP3F98CrKCKP2zsdZXIepFT95d+IQ3AVqv7yb1CQ74hJCIzTATqKeUHVX/xGPxDQiTQxUAwvTmSjm6/+IiDfIsbNheMyuvX0W0j9BY9nBpS16drK1koIP6pJ0VS2VkIQJyQTsMW4RZOisbqsEC7R2GiEQESciyTg6be6+gsfOkQgRWF1IVijyWEyVBmAe2Vrpclhik+MNzvNof1Ck7OSkewRzl0AOl4M0nhXwP/UyxzO6KXnqr94go7HvVQoFMowJdLc06ZrQU/O7DTHTI1BwRo5aIigW13WW0j9hR/3kh9rF6IVmp1mq8uaUZiRW5ZrdpohU6VWcVijXSLoyEpMgu/pYmoTthU1DVDeUg7BCFVqVXlLOShw4uqd8FIHZaB7Sc1Lhd26jjqq/sJZx+AuYtAJL2HnJfpUlKcTtURUmHYv128CiT39pdqXIidGzls2T5uulWYbM37MwKEDpWlrYerCnqj+8vK+l6MnRS9IXbA6Z7U0W+TEyLBhYdK0tWzzsp6r/vLfjv9+77v3pNmWbFgyccZEadr639P/S9Vfrk8ZyWPISNVfiIYGeGHfRy9U/QXnSJT2HTpnRhvm+fhvpJ6ESJCwClV/Qa9I3b8ccaDfguovIKWNT6ZqUjRIJ6bIWrRIt8jtHeC7p1P1l9q2WtAoS1yZWNdRB+lsY3ZOaQ6wLmkqAVVcDnrfoVP1F4QS1lVgFwllwC7qD1Bh/2hM49VBoHdPytGckgK7nGkAfA4ZqYQxLIMLvaDTwzMDqv7CsExGYQZSf2m42sBXzUZHhZ+s756O1+L3dICg+1f9BZ01eHqxvZg/bypj6D1T/aXqWBXozSRnJVtd1tB+obBb1lyGroeMofdM9Zey5jJPgjQAPaMwA42M0WUISJ+O1+5zmtO9eFOPW5/yxhDK8KcB+GM+Y6Oxtq3WyzqR3iC/vDz6dP5x83Oo+ovYbx354On8y0CUw/d0InOiwj8fTyc6bX5hCp3+EuNfv8TY8pstv/2f31b8pUKCLbcsN2ZqzPNvPy9BW9DEvavvvTP+Tmma2/XRrtmzvVB/+fvf/17wYoHucd3m/M0SbGseWTN1xtTUzalEbW0ybFr3+LoVj6wgsoLC8xfPn6Ke4oOhDyZZ+qz169fzf0jPnWW8cuXKkSNHPm76WJrN4XAcaDjgOOQgas5xyPFS4UuZmZlEVlD4g4MfHGg44IOhbyZffPkFPwAQFzqa8+3JCSpEchOuDoVOoRMToN0LMTLxBhS6eIbENVDoxMjEG1Do4hkS10ChEyMTb0Chi2dIXAOFToxMvAGFLp4hcQ0UOjEy8QYUuniGxDVQ6MTIxBtQ6OIZEtdAoRMjE29AoYtnSFwDhU6MTLyBzKC3tbWdOHHiyJEjRqPxySefPHHjr6Ojg78kJh5N4GqQGfTq6up169alpKTcc8898fHxa9euXb16dWNjI1V/CZyLsPX19UOGDAkODu594y84OHjYsGEOh4N6egChX758OSYmBld/efDBB7/55psANhmAqmXWvbAsm5eXFxISAtyvebrJZLpy5UoAyASwSvlBP378OFJ/ueOOO+So0CA/6CzLTp8+/bbbbgsODl6/fv3p06cD6JOBqVqW0N94440+ffr069dv+/bt/C+tBQaUP2uVJfSTJ08OHTp08uTJDQ0N/oQhVV2yhH7p0qW1a9euWrWqvb1dKlD+bIcL/Z///Gd7e/u3Uv198803R44c+eabb4gaPH36dE1NzYsvvkhkBYVPnDhx9OhRHwx9M3E6nfzLxYV++vTp9RvWR98ZrZqkkmCLuiMqfEj4uPHjSNu6c8KdUTFRpFaqSaoRESPCw8N9MPTBJCY2hqq/yCfIDv9nO37MoT/0ut75SBytjkKn0MX+QpPTB9CfNP4IlP6ksUf8pLFb9ZciaxHEDYY4w3hIYXBttxF2flaxATi3MNoNnPpLfWe92Wk2O83xifGWcxZI55bloiAMlnMWt63Lr3uB4Co9Qf2FYRnbZRuCzrCMvcuOQ7+mM+E2TIRcoaOTuYnqLwzL5JTmXIu0ZKgy2Lvs9i47EkRA9xk6TpQjy+7FrRCJyWFiWMbsNKvUKjyKljJMiU7b7+oviCMcUm5ZLpL+QB+h1lGOf6DvPLATYvmgvgxvgJNZUFOARDAExGMExuluofcE9Zc+oX0g5s7OAzsRgUBB1xl0+go93n9BwEJjoxHPhOPARUPwcGjoKCEhAL3nqL+gcFIQeQdiSekr9CiclDZdm78nn3Nq/vF0nUEXER2hUquK7cUgmpKclWxymJKzkstbyjmXWjx0/jngdfI/9TKHP04vbymPT4zHzQXiruHFIL04bTEA4X/khwepzqDbumtrzNQYs9MM+lfBIcHKMGVwSLDJYZIA+q2l/gLXEHUvI6JHXBuZljSVLNItgkGrvcuuDFNCGtR1QP0QcvhRDJFTCHQvqIx/E3xP92/9eG1+8PSc0pwiaxFUCu9g+KvaNM00zqva4rTFkMOPYoiOjEKnE150wov1MwK4vWTWvaA+wY+J6+ovEyLnLJ2z+OHF0myjY0YPHDJQmrY0azRqtbqzs5OzTMpdI5V4EePlupfHTR637LFlG1/cKM0WMzVmyKgh0rSV+mzqzJkz+d/6I4CeUZjh9hUAd/ySphKiUNM73tsRNzvOdMhU31kvzabdqJ04Y6I0be39di9Vf7n+kJBHn07VX/BbmSjt+zidqr8QgcYL+w4dvd/DjDZVf8GxwlS77bKNkwm7foNO1V9AWZuqv1x/QsLKhluPwzM5D9LUvFRYD6rrqIucGIkEnHETqv5SMiJ6BKwTadO1+Ci2/8D+vXr3ggGrNl3rKcw6BzqaLm642rDdtt0tdHQBYF0FdvF1K/5yApTxvXtBTXISpENyjjnscia88OUOqv4SkGmQaw4SIOgCqxCePB1WCJCnl7eU85XbwdOp+osmc1smrJ8FhwQnZyXD2iHqNPi3lyfo9Z31aflpsbNiYREO70nQch1Vf9EV1BQwLFNQUwDLxBmFGWgFHF8W53DnQAdz22Wb7bINLTejTLCl6i/uv9bDISuwy4HOsAxVf+n+4eFpWCIAGv+IDx0k4fAyRGm3vT/U4P/RC9GReSrMeZB6KubHfLfQ/Vg/XhWF/uM9RKFzh4y4mwQo3UOhZz+TnftGbvn/K5dgyynNuXPKnfl/zJegLWgicUXiHZPvkKY5Y6PRK/WXf/zjH4XbCjdu2bglf4sEW+qjqbPmzVqfvZ6orWxD9trH1i5LW0ZkBYUXLl04a+4sHwx9MNn87ObMrEz+D+m5y3VXrlw5ceLE51L9HT58uLGx8fDhw0QNHj58uKio6NFHHyWygsKHDh1qbGz0wdA3k6+//pofAIgLnbNu3TN3qRDJTbguFDqFTkyAdi/EyMQbUOjiGRLXQKETIxNvQKGLZ0hcA4VOjEy8AYUuniFxDRQ6MTLxBhS6eIbENVDoxMjEG1Do4hkS10ChEyMTb0Chi2dIXAOFToxMvAGFLp4hcQ0UOjEy8QYyg3727Nmvv/76yy+/3LlzZ3Z29tc3/s6dO8dfEhOPJnA1yAx6VVXVAw88cP/990+fPn3ChAlJSUlLly49ePAgVX8JnIuwDMOEh4ffhv0NHz78o48+op4eQOjffffdhAkTkPpLcHDwunXrZKfQILPuhWXZgoKCPn36APfevXuXlJR0dXUF8DoHoGr5Qf/b3/7Wt29fgD5+/Hg5KjTIDzrLsrNnzwb1l/T09G+//TYAvhjYKmUJvaKi4he/+IVSqSwuLpbXuAUupiyhf/PNN8OHD58yZcrBgwcD65OBqV2W0C9duqTT6R588MELFy4EBktga+VC7+rq+vbbb1ul+vvyyy+bmpq+/PJLogb/+te/VlZW5ufnf/3110SGra2tn3/+eVNTE6mVz+VPnjzJf4fgQj99+vSG9A0TJ0+cNnuaBNuEuyYMGTYkdkosaVvxM+Mn3T2J1Gra7Gmjxo4aMnSID4Y+mMTPiJ8/fz5/RMuFLnE4Kfqbo+sdGYXux5/d0B960R96/SvmIu1eaPfS/U+HiTof2r147F6o+ovvvuZWf4XvmJzfkUL064arDZZzlr7Kvij0CG5I1V/6KsOUwyOH13XU4bGFlGHKoKAgiHWNQo7j4FCaAx0PUoKH+EHlIUHVX7oRIsFDjnPY8YNhegn9Jqi/1LbVQvAadA7dxn9FJYUTAqMXt0Ikt5D6C/++42i9CJMV+JQU+i2k/sKHrk3XVrZWQoRCTYqmsrWSYRlNigYJAG0xbtGkaKwuq9VlTc1LNTYaIRAR5wIIQL/V1V/40JVhSpPDNH3BdJPDdO2WT1yZqFKrTA4TkrqqbK00OUzxifFmpzm0X2hyVjKSPcK5C0DHi0Ea73/5n3qZw3mQgoxNT1R/8QQdDbAgnJ8yTIlGXdp0LYwozE5zzNQYUCfhcyGCfmupv5gcpoTlCUjoBWI/4ldCpVb1H9gfqb9kFGbkluWanWbIVKlVfNyQQwTdUyVE+XxPJzInKizqjbS8pRx0XFRqFWhyTtNMK28pRz04vNTh6i+peamwW9dRR9VfOAtRdD7d93fgbr1elKd3W7vPBWj3chNmGV9858WxE8bOXDJzwUMLpNlG3Tnq9vDbpWlr/qr5PVH9ZVvdtjum3JH6bGpOSY4026Q5k4ZHDpemrU3Fm2bO6pHqL9co7Pp4FyjaSvBfm66dOHOiBA3Zu+zv/P0dqv5y/ZkpjyEjVX/xeZjg++iFqr/cBOi3gvoLwzL4vKlAJHC8JBLd9nRVfPd0DvSfn/oLwzK4SHRBTcGwscNg4p5PE+aUIL+suWx1zmqYYeWXFKUxXWwvhhf68IjwtPw0mFCcpplmcpgGDBoAHxmqDCaHCTLxWTCz0wzXTF+hD48IRxMD6BD5L0ccYVkoWWQtCo8Ij4iOKG8px9Vm8UWimKkxof1CYWYiNS8VpitQQyjh9kGKHIthmepT1TB7ikzwRElTCV5YeOLTd09vuNoAM1lmp7m+s76uo87sNFvOWfizYJZzFnuXHU0o1nXUwYIvwzJobdfsNDdcbUCnwYGOSyjHJ8YHBQVBSX2FXqFQbN21FddVzi3L7RPaBwTeGZZRKBRoOlOARbfQYWHAk6dzhF4EGhLl6QgQJ9GT1V8EJoGJoDdcbajrqOOcuBSezmnSv7scTy9vKU/OSuYsjJgcprT8tPCI8GxjttVlhfUTk8OUbcxWqVXZxmwo36t3r8SViWgNy5Ordgsdupenf/+0vcvOF6wqaSrpq+yL+i6pPd0v9DnQGZYxNhphFRDhg92CmoItxi2VrZXKMCUuZAbrgpoUDawggroZlHR7hG6hcx6kUL/VZc0ty0XT11CbNl2LViUD+CB1e+j+yuRD77Zm/O7utjC/gFvoDMvoDLqc0hxOeXwcyfkIJGFAn4fzEdr1/UGKqghEwgfoIr/94Ql6fWd9kbXI+3OsOlYlTDwgD1Lvj0+gpA/QBWrz5iNP0L2xJS3z8/F00jPnlKfQqRDJjdVT+vMXzp0hZpege8nOzc4pyXn9k9cl2J787yfvmHxHXmUeaVu7PtplcphIrV7/5PV7Hrhn3F3jfDD0wWTngZ1eqb+0tbW9suOVzCczn8x/UoJt/ab1ib9KzNiSQdTWE4YnVm1Ydd/K+4isoPDSB5Ym/irRB0MfTLY8uyU7O7t79Zeurq5Tp059KdVfS0vLxx9/3NLSQtRgS0vLjh07Nm/eTGQFhT/99NOPP/7YB0PfTI4fP8750gvLstzvvfBL9MAcKkRyEy4KhU6hExOg3QsxMvEGFLp4hsQ1UOjEyMQbUOjiGRLXQKETIxNvQKGLZ0hcA4VOjEy8AYUuniFxDRQ6MTLxBhS6eIbENVDoxMjEG1Do4hkS10ChEyMTb0Chi2dIXAOFToxMvIHMoHd1dXV2dl66dOmtt9567rnnOm/88RchxXMJaA0yg75//369Xv/MM88sW7bsnnvu+c1vfpObm/vJJ5/IK4q6zKBXVVUNHjwYE3+5rV+/fgcOHOBHbg6oq4qsXGbQz58/P3LkSKT+ctttt2k0mmPHjomkILG5zKCzLJuWlnbbbbcB9+Dg4FdeeeXy5csSUxPZnPygOxwOpVIJ0IcNG7Zv3z6RCKQ3lx/0q1evRkVFBQUF9erVa8WKFUeOHJGemsgW5QedZdkXXnghJCQkNDS0oKCgs7NTJALpzWUJ/csvv7z99ttjYmLMZrP0yMS3KEvoLpfr17/+tVarPXPmjHgE0tfgC/QrV658dlP/mpqaXnjhhYyMjMOHD3d7IB9//HF9ff1HH33UbUnSAl999dXFixd9uGa+QD958uTw4cMWLrz3Jm7z58+dM0ftzQHMnTtjxIhhM2ZM86aw92Xmz5+7ePHCDz/8UCLoJ06cmDIljmWPy2I7fHjfnDl3v/feW/492hMnPszPz/ngg/cpdDd+QKG7geJfB+TXRqFT6Nd7I18epLRPZ9njPbdP12jm8O93PKe0tNBqfRPPsVrfLC0txHNEpm+57iUs7HZhZAZDdkVFMV6moqLYYMjGc0Smf57QXa4vEhNnhoXdHhk5ymarSElJAkxq9WSFQhEdPdrh2BsSEhIWdntY2O12+x8GDhwABa7xVSgU/fr9sqnJfO7c507nZx0dLRUVxaGhv9iz57WOjpbIyFGRkaNQJtRw9OgHQUFBYWG3p6evYdnjnNaXL19sMGTv2fMaulQ/T+gpKUkOx16WPe50fqZQKDjQWfa4w7GXn8myxwE6eLpGM0etnpyWthJ5ulo92WarsNkq1OrJKJNlj4eF3Z6YOLOlxQZYOa0PGjSQ0ztR6MfB/XFP99S9qNWTly9fnJKSlJf3OAe6y/VFVtZDjY01LHucAx1d3Z+5p9fUmAyGbP4WETHs6acfKSzMdTj2xsWN5xdYtmxhQsIMgyH71CkHYtTcbDUYspubraWlhWBSWlrIgX7NZMOG1cAXbx1lotpY9jjf0wsLc1GBmhoT3jrKhwQqeeDA7uZmK/7pzR+9WK1vVlQUQ0967NjBiopi2Do7/7pnz2sOx95Zs6ZCTlvbp9CxwG5zs7WxsQYy0Sk1N1uPHTvIssf37HmtoqLYan3z2LGD6Jwhs6KiGDydZY+j1tvaPkWZqDYO9PT0NajHr6kxjR07EvpGVB4l0tPXoIFAc7M1JyejtZVBn9586OhQ3CbwPt1tgYBmcqAjjix7/NQpx4IF93iC3tRkxgujfgyOtqdD7+o64nJ9EVCyApULQMcfCW5rkDF0t+cjWaaX0K9ePdbR0cI5qp8D9NZWpluXb2v7VODJxoHiza4AdOhefv/7bV1dR5zOz9TqyXiFTU1mpbIff2wKZXp694LOhNMtonxIwPMNH6hwCjQ21lRUFHd2/pWTL7zLgc55kKakJKWkJLlcX5SVvZKX9zheVXr6Ghiwsuxx+T1I0ZkIQ4d72RP0Awd2o0EnqtCbBAc6yx43GLI5L1AsexyNDvl1olEs/lFP9/TWVgYcCsZn6elr4A2+sbEG8sHXQkJC4D0oLm48ckCWPd7ayhiNBWiWBu9ncQqe0nzonZ1/5cyyebKFfHzAikr2aOgdHS0rVy5xOPY6HHsXLLhn4sQ77fY/2O1/gDf+DRtWw0eJiTOhA62oKMYz0SyCH6EjcGISPRo6/oBKSUlSKBQDBw4YOHAAf0aF371ADow4KXSChelz5z5PTJzpdH7mdH62fPlipbLf0aMfoAnFp59+BD7CJxTR1C5Ah3erwsLcsrJXnM7PIiNHEXkov3shMvdUuEd7Osseb2mxqdWTYWtpseETihERwyC/o6Olo6MlLW0lvogBayAtLTYYV+TlPa5WT+aPpj1xgfxbFLonKJ4GKp7K+5ZPof/bwnRzs/XAgd2+ofTeikL/N+jegxNTkkKn0OlXMER8M/AmjF7i42O///4vsthuLKFMq6sr9+/Rfv11w3PPPSnddxlPnTp1111xr7ySJ4tt69ZHYmPHP/bYw/492ueeeyI9/WGHwyHRF0gvXrz45vW/cllspaUlRUXbSktL/H6077zzztmzZ32A/n//oPKebXHkFQAAAABJRU5ErkJggg==;" vertex="1" parent="1">
                    <mxGeometry x="520" y="-70" width="141.98" height="600" as="geometry"/>
                </mxCell>
                <mxCell id="7" value="" style="endArrow=classic;html=1;exitX=0.5;exitY=1;exitDx=0;exitDy=0;entryX=0.5;entryY=0;entryDx=0;entryDy=0;strokeColor=default;strokeWidth=3;" edge="1" parent="1" source="5" target="6">
                    <mxGeometry width="50" height="50" relative="1" as="geometry">
                        <mxPoint x="390" y="420" as="sourcePoint"/>
                        <mxPoint x="540" y="-110" as="targetPoint"/>
                        <Array as="points">
                            <mxPoint x="420" y="363"/>
                            <mxPoint x="500" y="-100"/>
                            <mxPoint x="591" y="-100"/>
                        </Array>
                    </mxGeometry>
                </mxCell>
            </root>
        </mxGraphModel>
    </diagram>
</mxfile>